<svg width="18" height="19" viewBox="0 0 18 19" fill="none" xmlns="http://www.w3.org/2000/svg">
<path d="M16.25 0.75C16.5625 0.75 16.875 0.90625 17.1094 1.14062C17.3438 1.375 17.5 1.6875 17.5 2V17C17.5 17.3516 17.3438 17.6641 17.1094 17.8984C16.875 18.1328 16.5625 18.25 16.25 18.25H1.25C0.898438 18.25 0.585938 18.1328 0.351562 17.8984C0.117188 17.6641 0 17.3516 0 17V2C0 1.6875 0.117188 1.375 0.351562 1.14062C0.585938 0.90625 0.898438 0.75 1.25 0.75H16.25ZM5.27344 15.75H5.3125V7.39062H2.69531V15.75H5.27344ZM3.98438 6.25781C4.375 6.25781 4.72656 6.14062 5.03906 5.82812C5.35156 5.51562 5.50781 5.16406 5.50781 4.77344C5.50781 4.38281 5.35156 4.03125 5.03906 3.71875C4.72656 3.40625 4.375 3.25 3.98438 3.25C3.55469 3.25 3.20312 3.40625 2.92969 3.71875C2.61719 4.03125 2.5 4.38281 2.5 4.77344C2.5 5.16406 2.61719 5.51562 2.92969 5.82812C3.20312 6.14062 3.55469 6.25781 3.98438 6.25781ZM15 15.75V11.1797C15 9.89062 14.8047 8.95312 14.4531 8.32812C13.9453 7.58594 13.0859 7.19531 11.9141 7.19531C11.2891 7.19531 10.7812 7.35156 10.3125 7.625C9.92188 7.85938 9.60938 8.17188 9.45312 8.52344H9.41406V7.39062H6.91406V15.75H9.49219V11.6094C9.49219 10.9844 9.57031 10.4766 9.76562 10.125C10 9.69531 10.4297 9.46094 11.0547 9.46094C11.6406 9.46094 12.0312 9.73438 12.2266 10.2031C12.3438 10.5156 12.4219 11.0234 12.4219 11.6875V15.75H15Z" fill="white"/>
</svg>
