<?xml version="1.0" encoding="UTF-8"?>
<svg width="41px" height="24px" viewBox="0 0 41 24" version="1.1" xmlns="http://www.w3.org/2000/svg" xmlns:xlink="http://www.w3.org/1999/xlink">
    <!-- Generator: Sketch 54 (76480) - https://sketchapp.com -->
    <title>utility__logo--glyph</title>
    <desc>Created with Sketch.</desc>
    <g id="Approved" stroke="none" stroke-width="1" fill="none" fill-rule="evenodd">
        <g id="iPhone-8-Copy-2" transform="translate(-24.000000, -24.000000)" fill="#FFFFFF" fill-rule="nonzero">
            <g id="utility__logo--glyph" transform="translate(24.000000, 24.000000)">
                <path d="M24.5845554,0 L15.1068808,0 L15.1068808,4.66340389 L18.810124,4.66340389 L18.810124,12.4412954 C18.810124,13.8236615 18.5819129,14.9362164 18.1185753,15.7523121 C17.6552377,16.5684078 16.8115483,17.3478625 15.5633029,18.0840141 C14.5373248,18.7747001 13.3312142,19.1750773 12.0813554,19.239872 C11.3111953,19.2503891 10.5622872,18.996521 9.96867416,18.5237064 C9.40851973,18.0873451 9.12498477,17.2212844 9.12498477,15.9521723 L9.12498477,0 L0,0 L0,4.66340389 L3.49577855,4.66340389 L3.49577855,16.6117108 C3.49577855,18.9067718 4.18732723,20.7321613 5.53584715,22.0345834 C6.88436706,23.3370055 8.7688372,23.999875 11.1201027,23.999875 C12.960829,24.008245 14.7773979,23.5961483 16.4208233,22.797383 C17.3619674,22.3441066 18.2440728,21.7850457 19.0487083,21.1318816 L19.0487083,23.4369355 L28.3846154,23.4369355 L28.3846154,18.7735316 L24.5810977,18.7735316 L24.5845554,0 Z" id="Path"></path>
                <path d="M39.7014017,16.720151 C38.8974617,15.9194924 37.7960693,15.4733405 36.6499266,15.4840598 C35.5028284,15.4840594 34.4027618,15.9308706 33.5919589,16.7261066 C32.781156,17.5213426 32.3261037,18.599793 32.3270034,19.7239856 C32.3150891,21.6526227 33.6298502,23.347317 35.5293297,23.8517043 C37.4288092,24.3560915 39.4367072,23.5436953 40.4199098,21.8729738 C41.4031123,20.2022523 41.1150787,18.0921437 39.7183544,16.7334423 L39.7014017,16.720151 Z" id="Path"></path>
            </g>
        </g>
    </g>
</svg>